<svg width="30" height="30" viewBox="0 0 30 30" fill="none" xmlns="http://www.w3.org/2000/svg">
<path d="M21.652 23.8069C20.493 20.707 17.5043 18.4999 14 18.4999C10.4958 18.4999 7.50707 20.707 6.34807 23.8069M21.652 23.8069C24.1117 21.6679 25.6667 18.5155 25.6667 14.9999C25.6667 8.5566 20.4434 3.33325 14 3.33325C7.55672 3.33325 2.33337 8.5566 2.33337 14.9999C2.33337 18.5155 3.88836 21.6679 6.34807 23.8069M21.652 23.8069C19.6036 25.5882 16.9278 26.6666 14 26.6666C11.0723 26.6666 8.39647 25.5882 6.34807 23.8069M17.5 11.4999C17.5 13.4329 15.933 14.9999 14 14.9999C12.067 14.9999 10.5 13.4329 10.5 11.4999C10.5 9.56692 12.067 7.99992 14 7.99992C15.933 7.99992 17.5 9.56692 17.5 11.4999Z" stroke="#141718" stroke-width="2.25" stroke-linejoin="round"/>
</svg>
